# xmcd
#
# Track frame offsets: 
#        150
#        27012
#        48735
#        71360
#        97032
#        124905
#        150877
#        176615
#        214802
#        244530
#        275292
#
# Disc length: 3915 seconds
#
# Revision: 1
# Processed by: cddbd v1.5.2PL0 Copyright (c) Steve Scherf et al.
# Submitted via: ExactAudioCopy v1.0b3
#
DISCID=8f0f490b
DTITLE=Los Van Van - The Best Of Los Van Van
DYEAR=1999
DGENRE=Salsa
TTITLE0=Ya Empezo La Fiesta
TTITLE1=Ay, Mama, Recibeme
TTITLE2=Que Palo Es Ese
TTITLE3=Que Tiene Van Van
TTITLE4=Un Socio
TTITLE5=Soy Normal, Natural
TTITLE6=Se Acabo el Querer
TTITLE7=Soy Todo
TTITLE8=El Tren se Va
TTITLE9=Llevala a Tu Vacilon
TTITLE10=Esto Te Pone la Cabeza Mala
EXTD=
EXTT0=
EXTT1=
EXTT2=
EXTT3=
EXTT4=
EXTT5=
EXTT6=
EXTT7=
EXTT8=
EXTT9=
EXTT10=
PLAYORDER=
